<svg xmlns="http://www.w3.org/2000/svg" data-name="Layer 1" viewBox="0 0 264.38 267.05">
  <path fill="none" stroke="#e69c15" stroke-width="3.715" stroke-miterlimit="10" d="M262 133.53c-.12 4.65-2.46 6.88-5 8.93a21.11 21.11 0 0 0-3.45 3.3 9.42 9.42 0 0 0-2.08 4.93 13.17 13.17 0 0 0 0 2.89 9.06 9.06 0 0 0 .64 2.42 26.49 26.49 0 0 0 2.43 4.14c1.76 2.66 3.58 5.5 2.25 10"/>
  <path fill="#e69c15" d="M260.59 155.45a3.18 3.18 0 0 1-2.09-1.35 3.74 3.74 0 0 1-.59-2.49 3.25 3.25 0 1 1 5.13 3.22 3.14 3.14 0 0 1-2.45.62zM249.15 164.55a3.18 3.18 0 0 1 2.25 4l-6.24-1.83a3.26 3.26 0 0 1 3.99-2.17zM256.43 133.53a3.25 3.25 0 0 1-3.33 3.18 3.19 3.19 0 0 1-3.17-3.18z"/>
  <path fill="none" stroke="#e69c15" stroke-width="3.715" stroke-miterlimit="10" d="M256.74 170.1a9.13 9.13 0 0 1-3 4.78 16 16 0 0 1-4.22 2.4c-3 1.26-5.84 2.44-7.66 6.31a10.41 10.41 0 0 0-.93 5.26 23.14 23.14 0 0 0 1.17 4.67 17.66 17.66 0 0 1 .94 4.76 8.88 8.88 0 0 1-.31 2.62 11.17 11.17 0 0 1-1.32 2.8"/>
  <path fill="#e69c15" d="M249.24 190.75a3.19 3.19 0 0 1-1.62-1.89 3.47 3.47 0 0 1 .12-2.57 3.4 3.4 0 0 1 4.37-1.77 3.29 3.29 0 0 1 1.54 4.48 3.56 3.56 0 0 1-1.88 1.85 3.13 3.13 0 0 1-2.53-.1zM235.68 196.24a3.15 3.15 0 0 1 1 4.44l-5.47-3.52a3.29 3.29 0 0 1 4.47-.92zM251.4 168.53a3.15 3.15 0 0 1-4 2.13 3.3 3.3 0 0 1-2.19-4z"/>
  <path fill="none" stroke="#e69c15" stroke-width="3.715" stroke-miterlimit="10" d="M241.38 203.7a10.58 10.58 0 0 1-2 2.36 9.61 9.61 0 0 1-2.26 1.36 17.26 17.26 0 0 1-4.72 1.11 21.72 21.72 0 0 0-4.74.87 9.21 9.21 0 0 0-2.22 1.12 9.88 9.88 0 0 0-2.18 1.91 10 10 0 0 0-1.58 2.43 8.92 8.92 0 0 0-.8 2.36 21.76 21.76 0 0 0-.18 4.82 17.61 17.61 0 0 1-.44 4.83 9.62 9.62 0 0 1-1 2.43 11.06 11.06 0 0 1-2.06 2.31"/>
  <path fill="#e69c15" d="M228.36 221.39a3.43 3.43 0 0 1 4.49-5.17 3.43 3.43 0 0 1-4.49 5.17zM213.79 222.84a3.15 3.15 0 0 1-.27 4.55l-4.26-4.91a3.3 3.3 0 0 1 4.53.36zM236.69 200.68a3.14 3.14 0 0 1-4.47.91 3.3 3.3 0 0 1-1-4.43z"/>
  <path fill="none" stroke="#e69c15" stroke-width="3.715" stroke-miterlimit="10" d="M217.18 231.6a11.17 11.17 0 0 1-2.58 1.71 9.34 9.34 0 0 1-2.6.69 17.63 17.63 0 0 1-4.84-.25 22.29 22.29 0 0 0-4.79-.5 8.94 8.94 0 0 0-2.45.45 10.46 10.46 0 0 0-2.62 1.22 10.59 10.59 0 0 0-3.62 3.93 21.67 21.67 0 0 0-1.53 4.56 16.78 16.78 0 0 1-1.77 4.52 9.05 9.05 0 0 1-4.29 3.69"/>
  <path fill="#e69c15" d="M199.73 244.95a3.43 3.43 0 0 1 5.76-3.72 3.43 3.43 0 0 1-5.76 3.72zM185.33 242.23a3.24 3.24 0 0 1 .16 2.49 3.18 3.18 0 0 1-1.69 1.81l-2.7-5.91a3.1 3.1 0 0 1 2.41 0 3.31 3.31 0 0 1 1.82 1.61zM213.53 227.4a3.15 3.15 0 0 1-4.53-.4 3.29 3.29 0 0 1 .28-4.53z"/>
  <path fill="none" stroke="#e69c15" stroke-width="3.715" stroke-miterlimit="10" d="M186.11 251.6c-4.21 2-7.31.54-10.18-.78a24.79 24.79 0 0 0-4.45-1.82 10.3 10.3 0 0 0-5.33.17c-4.11 1.23-5.66 3.88-7.35 6.67a15.41 15.41 0 0 1-3 3.85 9.5 9.5 0 0 1-2.19 1.46 9 9 0 0 1-3 .87"/>
  <path fill="#e69c15" d="M165.59 259.46a3.38 3.38 0 0 1 2.41-4.06 3.42 3.42 0 0 1 4.19 2.12 3.27 3.27 0 0 1-2.36 4.12 3.31 3.31 0 0 1-4.24-2.18zM152.56 252.77a3.25 3.25 0 0 1-.55 2.43 3 3 0 0 1-2.13 1.28l-.92-6.44a3.26 3.26 0 0 1 3.6 2.72zM183.8 246.53a3.16 3.16 0 0 1-4.25-1.64 3.27 3.27 0 0 1 1.55-4.27z"/>
  <path fill="none" stroke="#e69c15" stroke-width="3.715" stroke-miterlimit="10" d="M150.66 262a9.85 9.85 0 0 1-5.6-.76 18.06 18.06 0 0 1-3.94-2.9c-2.4-2.09-4.64-4.41-8.93-4.29-4.29-.12-6.53 2.2-8.93 4.29a18.06 18.06 0 0 1-3.94 2.9 9.85 9.85 0 0 1-5.6.76"/>
  <path fill="#e69c15" d="M128.77 263.72a3.43 3.43 0 0 1 6.85 0 3.43 3.43 0 0 1-6.85 0zM118.12 253.67a3.21 3.21 0 0 1-3.62 2.82l.92-6.44a3.23 3.23 0 0 1 2.7 3.62zM149.87 256.49a3.25 3.25 0 0 1-.92-6.44z"/>
  <path fill="none" stroke="#e69c15" stroke-width="3.715" stroke-miterlimit="10" d="M113.72 262a9 9 0 0 1-3-.87 9.5 9.5 0 0 1-2.19-1.46 15.41 15.41 0 0 1-3-3.85c-1.69-2.79-3.24-5.44-7.35-6.67a10.3 10.3 0 0 0-5.28-.15 24.79 24.79 0 0 0-4.45 1.82c-2.87 1.32-6 2.76-10.18.78"/>
  <path fill="#e69c15" d="M92.21 257.53a3.42 3.42 0 0 1 4.19-2.12 3.38 3.38 0 0 1 2.38 4.05 3.31 3.31 0 0 1-4.21 2.18 3.27 3.27 0 0 1-2.36-4.11zM84.83 244.89a3.16 3.16 0 0 1-4.25 1.64l2.7-5.91a3.27 3.27 0 0 1 1.55 4.27zM114.51 256.49a3 3 0 0 1-2.13-1.28 3.25 3.25 0 0 1-.55-2.43 3.26 3.26 0 0 1 3.6-2.72z"/>
  <path fill="none" stroke="#e69c15" stroke-width="3.715" stroke-miterlimit="10" d="M78.27 251.6a9.05 9.05 0 0 1-4.27-3.69 16.78 16.78 0 0 1-1.77-4.52 21.67 21.67 0 0 0-1.53-4.56 10.59 10.59 0 0 0-3.7-3.93 10.46 10.46 0 0 0-2.62-1.22 8.94 8.94 0 0 0-2.45-.45 22.29 22.29 0 0 0-4.79.5 17.63 17.63 0 0 1-4.84.25 9.34 9.34 0 0 1-2.55-.68 11.17 11.17 0 0 1-2.58-1.71"/>
  <path fill="#e69c15" d="M58.9 241.23a3.43 3.43 0 0 1 5.76 3.72 3.43 3.43 0 0 1-5.76-3.72zM55.4 227a3.15 3.15 0 0 1-4.54.38l4.26-4.91a3.29 3.29 0 0 1 .28 4.53zM80.58 246.53a3.18 3.18 0 0 1-1.69-1.81 3.24 3.24 0 0 1 .16-2.49 3.31 3.31 0 0 1 1.83-1.65 3.1 3.1 0 0 1 2.41 0z"/>
  <path fill="none" stroke="#e69c15" stroke-width="3.715" stroke-miterlimit="10" d="M47.2 231.6a11.06 11.06 0 0 1-2.06-2.31 9.62 9.62 0 0 1-1-2.43 17.61 17.61 0 0 1-.44-4.83 21.76 21.76 0 0 0-.18-4.82 8.92 8.92 0 0 0-.8-2.36 10 10 0 0 0-1.58-2.43 9.88 9.88 0 0 0-2.18-1.91 9.21 9.21 0 0 0-2.22-1.12 21.72 21.72 0 0 0-4.74-.87 17.26 17.26 0 0 1-4.72-1.11 9.61 9.61 0 0 1-2.28-1.35 10.58 10.58 0 0 1-2-2.36"/>
  <path fill="#e69c15" d="M31.53 216.22a3.43 3.43 0 0 1 4.47 5.17 3.43 3.43 0 0 1-4.49-5.17zM32.16 201.59a3.14 3.14 0 0 1-4.47-.91l5.47-3.52a3.3 3.3 0 0 1-1 4.43zM50.85 227.4a3.15 3.15 0 0 1-.27-4.55 3.3 3.3 0 0 1 4.53-.36z"/>
  <path fill="none" stroke="#e69c15" stroke-width="3.715" stroke-miterlimit="10" d="M23 203.7a11.17 11.17 0 0 1-1.32-2.8 8.88 8.88 0 0 1-.31-2.62 17.66 17.66 0 0 1 .94-4.76 23.14 23.14 0 0 0 1.17-4.67 10.41 10.41 0 0 0-.93-5.26c-1.83-3.88-4.63-5.05-7.66-6.31a16 16 0 0 1-4.22-2.4 9.13 9.13 0 0 1-3-4.78"/>
  <path fill="#e69c15" d="M12.28 184.52a3.4 3.4 0 0 1 4.37 1.77 3.47 3.47 0 0 1 .12 2.57 3.19 3.19 0 0 1-1.62 1.89 3.13 3.13 0 0 1-2.52.1 3.56 3.56 0 0 1-1.89-1.85 3.29 3.29 0 0 1 1.54-4.48zM17 170.66a3.15 3.15 0 0 1-4-2.13l6.24-1.83a3.3 3.3 0 0 1-2.24 3.96zM27.69 200.68a3.15 3.15 0 0 1 1-4.44 3.29 3.29 0 0 1 4.45.92z"/>
  <path fill="none" stroke="#e69c15" stroke-width="3.715" stroke-miterlimit="10" d="M7.64 170.1c-1.33-4.46.49-7.31 2.25-10a26.49 26.49 0 0 0 2.42-4.1 9.06 9.06 0 0 0 .64-2.42 13.17 13.17 0 0 0 0-2.89 9.42 9.42 0 0 0-2.08-4.93 21.11 21.11 0 0 0-3.45-3.3c-2.54-2.05-4.88-4.28-5-8.93"/>
  <path fill="#e69c15" d="M2.82 148.66a3.35 3.35 0 0 1 3.65 2.94 3.74 3.74 0 0 1-.59 2.49 3.18 3.18 0 0 1-2.09 1.35 3.14 3.14 0 0 1-2.44-.62 3.48 3.48 0 0 1 1.48-6.16zM11.28 136.71A3.25 3.25 0 0 1 8 133.53h6.5a3.19 3.19 0 0 1-3.22 3.18zM13 168.53a3.18 3.18 0 0 1 2.25-4 3.26 3.26 0 0 1 4 2.15z"/>
  <path fill="none" stroke="#e69c15" stroke-width="3.715" stroke-miterlimit="10" d="M2.38 133.53c.12-4.65 2.46-6.88 5-8.93a21.11 21.11 0 0 0 3.45-3.3 9.42 9.42 0 0 0 2.08-4.93 13.17 13.17 0 0 0 0-2.89 9.06 9.06 0 0 0-.64-2.42 26.49 26.49 0 0 0-2.43-4.14c-1.76-2.66-3.58-5.5-2.25-10"/>
  <path fill="#e69c15" d="M3.79 111.61A3.18 3.18 0 0 1 5.88 113a3.74 3.74 0 0 1 .59 2.49 3.35 3.35 0 0 1-3.65 2.94 3.48 3.48 0 0 1-1.48-6.16 3.14 3.14 0 0 1 2.45-.66zM15.23 102.5a3.18 3.18 0 0 1-2.25-4l6.24 1.83a3.26 3.26 0 0 1-3.99 2.17zM8 133.53a3.25 3.25 0 0 1 3.33-3.18 3.19 3.19 0 0 1 3.17 3.18z"/>
  <path fill="none" stroke="#e69c15" stroke-width="3.715" stroke-miterlimit="10" d="M7.64 97a9.13 9.13 0 0 1 3-4.78 16 16 0 0 1 4.22-2.4c3-1.26 5.84-2.44 7.66-6.31a10.41 10.41 0 0 0 .93-5.26 23.15 23.15 0 0 0-1.17-4.67 17.66 17.66 0 0 1-.94-4.76 8.88 8.88 0 0 1 .31-2.62A11.17 11.17 0 0 1 23 63.35"/>
  <path fill="#e69c15" d="M15.14 76.3a3.19 3.19 0 0 1 1.62 1.89 3.47 3.47 0 0 1-.12 2.57 3.4 3.4 0 0 1-4.37 1.77 3.29 3.29 0 0 1-1.54-4.48 3.56 3.56 0 0 1 1.88-1.85 3.13 3.13 0 0 1 2.53.1zM28.7 70.81a3.15 3.15 0 0 1-1-4.44l5.47 3.52a3.29 3.29 0 0 1-4.47.92zM13 98.52a3.14 3.14 0 0 1 4-2.13 3.3 3.3 0 0 1 2.19 4z"/>
  <path fill="none" stroke="#e69c15" stroke-width="3.715" stroke-miterlimit="10" d="M23 63.35A10.58 10.58 0 0 1 25 61a9.61 9.61 0 0 1 2.26-1.36A17.27 17.27 0 0 1 32 58.52a21.72 21.72 0 0 0 4.74-.87 9.22 9.22 0 0 0 2.22-1.12 9.88 9.88 0 0 0 2.18-1.91 10 10 0 0 0 1.56-2.42 8.92 8.92 0 0 0 .8-2.36 21.76 21.76 0 0 0 .18-4.84 17.61 17.61 0 0 1 .44-4.83 9.62 9.62 0 0 1 1-2.43 11.06 11.06 0 0 1 2.06-2.31"/>
  <path fill="#e69c15" d="M36 45.66a3.43 3.43 0 0 1-4.49 5.17A3.43 3.43 0 0 1 36 45.66zM50.59 44.21a3.15 3.15 0 0 1 .27-4.55l4.26 4.91a3.3 3.3 0 0 1-4.53-.36zM27.69 66.37a3.14 3.14 0 0 1 4.47-.91 3.3 3.3 0 0 1 1 4.43z"/>
  <path fill="none" stroke="#e69c15" stroke-width="3.715" stroke-miterlimit="10" d="M47.2 35.45a11.17 11.17 0 0 1 2.58-1.71 9.34 9.34 0 0 1 2.55-.68 17.63 17.63 0 0 1 4.84.25 22.29 22.29 0 0 0 4.79.5 8.94 8.94 0 0 0 2.45-.45A10.46 10.46 0 0 0 67 32.15a10.59 10.59 0 0 0 3.62-3.93 21.67 21.67 0 0 0 1.53-4.56A16.78 16.78 0 0 1 74 19.14a9.05 9.05 0 0 1 4.29-3.69"/>
  <path fill="#e69c15" d="M64.65 22.1a3.43 3.43 0 0 1-5.76 3.72 3.43 3.43 0 0 1 5.76-3.72zM79.05 24.82a3.24 3.24 0 0 1-.16-2.49 3.18 3.18 0 0 1 1.69-1.81l2.7 5.91a3.1 3.1 0 0 1-2.41 0 3.31 3.31 0 0 1-1.82-1.61zM50.85 39.66a3.15 3.15 0 0 1 4.55.34 3.29 3.29 0 0 1-.28 4.53z"/>
  <path fill="none" stroke="#e69c15" stroke-width="3.715" stroke-miterlimit="10" d="M78.27 15.45c4.21-2 7.31-.54 10.18.78a24.8 24.8 0 0 0 4.45 1.82 10.3 10.3 0 0 0 5.33-.17c4.11-1.23 5.66-3.88 7.35-6.67a15.41 15.41 0 0 1 3-3.85 9.5 9.5 0 0 1 2.19-1.46 9 9 0 0 1 3-.87"/>
  <path fill="#e69c15" d="M98.79 7.59a3.38 3.38 0 0 1-2.38 4.05 3.42 3.42 0 0 1-4.19-2.12 3.27 3.27 0 0 1 2.36-4.12 3.31 3.31 0 0 1 4.21 2.19zM111.82 14.28a3.25 3.25 0 0 1 .55-2.43 3 3 0 0 1 2.13-1.28l.92 6.44a3.26 3.26 0 0 1-3.6-2.72zM80.58 20.52a3.16 3.16 0 0 1 4.25 1.64 3.27 3.27 0 0 1-1.55 4.27z"/>
  <path fill="none" stroke="#e69c15" stroke-width="3.715" stroke-miterlimit="10" d="M113.72 5a9.85 9.85 0 0 1 5.6.76 18.05 18.05 0 0 1 3.94 2.9c2.4 2.09 4.64 4.41 8.93 4.29 4.29.12 6.53-2.2 8.93-4.29a18.05 18.05 0 0 1 3.94-2.9 9.85 9.85 0 0 1 5.6-.76"/>
  <path fill="#e69c15" d="M135.61 3.34a3.43 3.43 0 0 1-6.85 0 3.43 3.43 0 0 1 6.85 0zM146.26 13.38a3.21 3.21 0 0 1 3.62-2.82L149 17a3.23 3.23 0 0 1-2.74-3.62zM114.51 10.56a3.25 3.25 0 0 1 .92 6.44z"/>
  <path fill="none" stroke="#e69c15" stroke-width="3.715" stroke-miterlimit="10" d="M150.66 5a9 9 0 0 1 3 .87 9.5 9.5 0 0 1 2.19 1.46 15.41 15.41 0 0 1 3 3.85c1.69 2.79 3.24 5.44 7.35 6.67a10.3 10.3 0 0 0 5.33.17 24.8 24.8 0 0 0 4.45-1.82c2.87-1.32 6-2.76 10.18-.78"/>
  <path fill="#e69c15" d="M172.17 9.53a3.42 3.42 0 0 1-4.17 2.12 3.38 3.38 0 0 1-2.38-4.05 3.31 3.31 0 0 1 4.21-2.18 3.27 3.27 0 0 1 2.34 4.11zM179.55 22.16a3.16 3.16 0 0 1 4.25-1.64l-2.7 5.91a3.27 3.27 0 0 1-1.55-4.27zM149.87 10.56a3 3 0 0 1 2.13 1.29 3.25 3.25 0 0 1 .55 2.43A3.26 3.26 0 0 1 149 17z"/>
  <path fill="none" stroke="#e69c15" stroke-width="3.715" stroke-miterlimit="10" d="M186.11 15.45a9.05 9.05 0 0 1 4.29 3.69 16.78 16.78 0 0 1 1.77 4.52 21.67 21.67 0 0 0 1.53 4.56 10.59 10.59 0 0 0 3.62 3.93 10.46 10.46 0 0 0 2.68 1.22 8.94 8.94 0 0 0 2.45.45 22.29 22.29 0 0 0 4.79-.5 17.63 17.63 0 0 1 4.84-.25 9.34 9.34 0 0 1 2.55.68 11.17 11.17 0 0 1 2.58 1.71"/>
  <path fill="#e69c15" d="M205.48 25.82a3.43 3.43 0 0 1-5.76-3.72 3.43 3.43 0 0 1 5.76 3.72zM209 40a3.15 3.15 0 0 1 4.54-.38l-4.26 4.91A3.29 3.29 0 0 1 209 40zM183.8 20.52a3.18 3.18 0 0 1 1.69 1.81 3.24 3.24 0 0 1-.16 2.49 3.31 3.31 0 0 1-1.83 1.65 3.1 3.1 0 0 1-2.41 0z"/>
  <path fill="none" stroke="#e69c15" stroke-width="3.715" stroke-miterlimit="10" d="M217.18 35.45a11.06 11.06 0 0 1 2.06 2.31 9.62 9.62 0 0 1 1 2.43 17.61 17.61 0 0 1 .46 4.81 21.76 21.76 0 0 0 .18 4.82 8.92 8.92 0 0 0 .8 2.36 10 10 0 0 0 1.58 2.43 9.88 9.88 0 0 0 2.18 1.91 9.22 9.22 0 0 0 2.22 1.12 21.72 21.72 0 0 0 4.74.87 17.27 17.27 0 0 1 4.72 1.11 9.61 9.61 0 0 1 2.26 1.38 10.58 10.58 0 0 1 2 2.36"/>
  <path fill="#e69c15" d="M232.85 50.83a3.43 3.43 0 0 1-4.49-5.17 3.43 3.43 0 0 1 4.49 5.17zM232.22 65.47a3.14 3.14 0 0 1 4.47.91l-5.47 3.52a3.3 3.3 0 0 1 1-4.43zM213.53 39.66a3.15 3.15 0 0 1 .27 4.55 3.3 3.3 0 0 1-4.53.36z"/>
  <path fill="none" stroke="#e69c15" stroke-width="3.715" stroke-miterlimit="10" d="M241.38 63.35a11.17 11.17 0 0 1 1.32 2.8 8.88 8.88 0 0 1 .31 2.62 17.66 17.66 0 0 1-.94 4.76 23.14 23.14 0 0 0-1.17 4.67 10.41 10.41 0 0 0 .93 5.26c1.83 3.88 4.63 5.05 7.66 6.31a16 16 0 0 1 4.22 2.4 9.13 9.13 0 0 1 3 4.78"/>
  <path fill="#e69c15" d="M252.1 82.53a3.4 3.4 0 0 1-4.37-1.77 3.47 3.47 0 0 1-.12-2.57 3.19 3.19 0 0 1 1.62-1.89 3.13 3.13 0 0 1 2.52-.1 3.56 3.56 0 0 1 1.88 1.85 3.29 3.29 0 0 1-1.53 4.48zM247.35 96.39a3.14 3.14 0 0 1 4 2.13l-6.24 1.83a3.3 3.3 0 0 1 2.24-3.96zM236.69 66.37a3.15 3.15 0 0 1-1 4.44 3.29 3.29 0 0 1-4.45-.92z"/>
  <path fill="none" stroke="#e69c15" stroke-width="3.715" stroke-miterlimit="10" d="M256.74 97c1.33 4.46-.49 7.31-2.25 10a26.49 26.49 0 0 0-2.43 4.14 9.06 9.06 0 0 0-.64 2.42 13.17 13.17 0 0 0 0 2.89 9.42 9.42 0 0 0 2.08 4.93 21.11 21.11 0 0 0 3.45 3.3c2.54 2.05 4.88 4.28 5 8.93"/>
  <path fill="#e69c15" d="M261.56 118.39a3.35 3.35 0 0 1-3.65-2.94 3.74 3.74 0 0 1 .59-2.49 3.18 3.18 0 0 1 2.09-1.35 3.14 3.14 0 0 1 2.44.62 3.48 3.48 0 0 1-1.48 6.16zM253.1 130.34a3.25 3.25 0 0 1 3.33 3.18h-6.5a3.19 3.19 0 0 1 3.17-3.18zM251.4 98.52a3.18 3.18 0 0 1-2.25 4 3.26 3.26 0 0 1-4-2.15z"/>
  <path fill="#ffc865" d="M236.52 159.88a9.79 9.79 0 0 1-7.19 2 4.56 4.56 0 0 0 2.41-1.1 4.29 4.29 0 0 0 1.41-2.36 4.7 4.7 0 0 0-.58-3.58 4.54 4.54 0 0 0-3-2 10.31 10.31 0 0 0-5 .41 21.2 21.2 0 0 0-4.43 2c-1.27.76-2.42 1.51-3.21 2.08s-1.26 1-1.26 1 .18.57.56 1.48a33.24 33.24 0 0 0 1.55 3.48c1.46 2.68 3.41 5.81 6.63 7.12a4.55 4.55 0 0 0 3.57-.07 4.61 4.61 0 0 0 1.48-1.06 4.8 4.8 0 0 0 .94-1.64 4.49 4.49 0 0 0-1.33-5 9.65 9.65 0 0 1 4.93 5.6 8.73 8.73 0 0 1 .4 2.24 4.56 4.56 0 0 1 0 .9l1.18-3.44.58-1.73.5-1.75 1-3.5.82-3.55a7.81 7.81 0 0 1-1.96 2.47zM225 188.12a9.7 9.7 0 0 1-7.47-.07 4.49 4.49 0 0 0 4.64-2.24 4.5 4.5 0 0 0-1.83-6.34 10.18 10.18 0 0 0-4.89-1 22.25 22.25 0 0 0-4.82.65c-1.46.35-2.71.78-3.66 1.09s-1.49.56-1.49.56a40.59 40.59 0 0 0 .62 5.36c.63 3 1.65 6.55 4.35 8.7a4.52 4.52 0 0 0 6.53-1 4.45 4.45 0 0 0 .12-5.15 11.39 11.39 0 0 1 2.49 3.6 8.58 8.58 0 0 1 .66 3.16 7.89 7.89 0 0 1-.53 3.11c1.4-2 2.85-3.92 4.12-6s2.54-4.13 3.74-6.24a7.86 7.86 0 0 1-2.58 1.81zM198.82 209.78a4.46 4.46 0 0 0 5.08-.85 4.52 4.52 0 0 0 0-6.6c-2.51-2.37-6.18-2.89-9.21-3.08-1.51-.08-2.82 0-3.82 0s-1.59.12-1.59.12-.16.58-.34 1.54-.42 2.27-.56 3.78c-.24 3-.25 6.76 1.74 9.57a4.58 4.58 0 0 0 8.1-4 9.69 9.69 0 0 1 1.13 7.38 7.87 7.87 0 0 1-1.35 2.86 115.61 115.61 0 0 0 11-9.5 7.88 7.88 0 0 1-3 1 9.68 9.68 0 0 1-7.18-2.22zM181 229.47a8.78 8.78 0 0 1-3-1.1 11.41 11.41 0 0 1-3.21-3 4.61 4.61 0 0 0 2.41 1.12 4.74 4.74 0 0 0 2.7-.5 4.52 4.52 0 0 0 1.88-6.33c-1.75-3-5.12-4.5-8-5.55-1.43-.51-2.71-.8-3.66-1s-1.56-.34-1.56-.34-.32.51-.76 1.38c-.22.43-.48 1-.75 1.55s-.57 1.22-.85 1.92a21.58 21.58 0 0 0-1.33 4.69 10.14 10.14 0 0 0 .3 5 4.49 4.49 0 0 0 6 2.72 4.5 4.5 0 0 0 2.88-4.27 9.72 9.72 0 0 1-1 7.4 7.84 7.84 0 0 1-2.13 2.32l3.39-1.34c1.13-.45 2.22-1 3.33-1.47 2.23-1 4.36-2.13 6.52-3.23a7.91 7.91 0 0 1-3.16.03zM152 235.6a4.43 4.43 0 0 0 3-2 4.53 4.53 0 0 0 .58-3.52 10.29 10.29 0 0 0-2.44-4.38 23.94 23.94 0 0 0-3.64-3.19 30.9 30.9 0 0 0-3.22-2l-1.4-.76s-.45.39-1.12 1.09-1.58 1.73-2.52 2.9c-1.85 2.33-3.88 5.56-3.73 9a4.58 4.58 0 0 0 9 1 10 10 0 0 1-3 6.83 7.74 7.74 0 0 1-2.7 1.59 107.6 107.6 0 0 0 14.4-2 4.77 4.77 0 0 1-.89-.08 8.79 8.79 0 0 1-2.16-.73 9.7 9.7 0 0 1-4.83-5.67 4.53 4.53 0 0 0 4.67 1.92zM121.37 220.78c-.68-.7-1.14-1.1-1.14-1.1l-.38.2-1 .55a31.07 31.07 0 0 0-3.22 2 24.08 24.08 0 0 0-3.65 3.2 10.28 10.28 0 0 0-2.44 4.38 4.53 4.53 0 0 0 .58 3.52 4.43 4.43 0 0 0 3 2 4.53 4.53 0 0 0 4.73-2 9.7 9.7 0 0 1-4.83 5.67 8.78 8.78 0 0 1-2.16.73 4.78 4.78 0 0 1-.89.08c1.18.28 2.38.45 3.58.68s2.38.45 3.59.58l3.61.46c1.2.16 2.41.21 3.62.32a7.74 7.74 0 0 1-2.7-1.59 10 10 0 0 1-3-6.84 4.58 4.58 0 0 0 9-1c.15-3.44-1.87-6.66-3.71-9-.96-1.11-1.96-2.16-2.59-2.84zM99 217.6c-.28-.7-.57-1.34-.85-1.91s-.53-1.12-.75-1.55c-.45-.87-.77-1.39-.77-1.39s-.59.1-1.54.33-2.23.54-3.67 1c-2.86 1-6.25 2.55-8 5.55a4.52 4.52 0 0 0 1.85 6.37 4.74 4.74 0 0 0 2.7.5 4.61 4.61 0 0 0 2.41-1.12 11.41 11.41 0 0 1-3.21 3 8.78 8.78 0 0 1-3 1.1 7.91 7.91 0 0 1-3.16-.07 113.57 113.57 0 0 0 13.24 6 7.84 7.84 0 0 1-2.13-2.32 9.72 9.72 0 0 1-1-7.4A4.5 4.5 0 0 0 94 230a4.49 4.49 0 0 0 6-2.72 10.15 10.15 0 0 0 .31-5A21.49 21.49 0 0 0 99 217.6zM76.2 200.95c-.18-1-.35-1.56-.35-1.56a41.12 41.12 0 0 0-5.39-.14c-3 .19-6.72.71-9.23 3.08a4.51 4.51 0 0 0 0 6.6 4.46 4.46 0 0 0 5.08.85 9.68 9.68 0 0 1-7.14 2.16 7.87 7.87 0 0 1-3-1c1.76 1.67 3.48 3.38 5.34 4.93s3.73 3.09 5.64 4.59a7.87 7.87 0 0 1-1.38-2.83 9.69 9.69 0 0 1 1.13-7.38 4.58 4.58 0 0 0 8.1 4c2-2.81 2-6.53 1.75-9.56-.12-1.47-.38-2.76-.55-3.74zM59.58 182.34c.1-1 .11-1.59.11-1.59s-.55-.24-1.47-.56-2.2-.73-3.66-1.09a22.34 22.34 0 0 0-4.83-.65 10.17 10.17 0 0 0-4.9 1 4.5 4.5 0 0 0-1.83 6.36 4.49 4.49 0 0 0 4.64 2.19 9.7 9.7 0 0 1-7.47.07 7.86 7.86 0 0 1-2.6-1.77 114.83 114.83 0 0 0 7.86 12.23 7.89 7.89 0 0 1-.53-3.11 8.58 8.58 0 0 1 .66-3.16 11.39 11.39 0 0 1 2.49-3.6 4.45 4.45 0 0 0 .12 5.15 4.52 4.52 0 0 0 6.53 1c2.71-2.15 3.73-5.71 4.36-8.68.31-1.5.41-2.8.52-3.79zM40.7 170.41c3.22-1.3 5.17-4.42 6.63-7.1a32.78 32.78 0 0 0 1.55-3.47c.37-.91.56-1.5.56-1.5s-.46-.39-1.25-1-1.94-1.32-3.21-2.08a21.3 21.3 0 0 0-4.44-2 10.31 10.31 0 0 0-5-.41 4.54 4.54 0 0 0-3 2 4.7 4.7 0 0 0-.58 3.58 4.29 4.29 0 0 0 1.41 2.36 4.56 4.56 0 0 0 2.41 1.1 9.79 9.79 0 0 1-7.19-2 7.81 7.81 0 0 1-2-2.44l.82 3.55 1 3.5.5 1.75.58 1.73 1.18 3.44a4.56 4.56 0 0 1 0-.9 8.73 8.73 0 0 1 .4-2.24 9.65 9.65 0 0 1 4.93-5.6 4.49 4.49 0 0 0-1.33 5 4.8 4.8 0 0 0 .94 1.64 4.61 4.61 0 0 0 1.48 1.06 4.55 4.55 0 0 0 3.61.03zM29.17 138.7a4.56 4.56 0 0 0 5 4.34c3.45-.34 6.28-2.78 8.36-4.94a31.37 31.37 0 0 0 2.51-2.9c.59-.77.91-1.28.91-1.28a29.29 29.29 0 0 0-3.41-4.17c-2.08-2.16-4.92-4.61-8.37-5a4.56 4.56 0 0 0-5 4.34 4.62 4.62 0 0 0 2.68 4.39 9.86 9.86 0 0 1-6.3-4 7.14 7.14 0 0 1-1-2 5.51 5.51 0 0 1-.21-.87l-.13 1.81v1.82l-.09 3.63.09 3.63v1.82l.13 1.81a5.51 5.51 0 0 1 .21-.87 7.14 7.14 0 0 1 1-2 9.86 9.86 0 0 1 6.3-4 4.62 4.62 0 0 0-2.68 4.44zM28.63 108a9.79 9.79 0 0 1 7.19-2 4.56 4.56 0 0 0-2.41 1.1 4.29 4.29 0 0 0-1.41 2.28 4.7 4.7 0 0 0 .58 3.58 4.54 4.54 0 0 0 3 2 10.31 10.31 0 0 0 5-.41 21.21 21.21 0 0 0 4.43-2c1.27-.76 2.42-1.51 3.21-2.08s1.26-1 1.26-1-.18-.57-.56-1.48a33.2 33.2 0 0 0-1.55-3.48c-1.46-2.68-3.41-5.81-6.63-7.11a4.55 4.55 0 0 0-3.57.07 4.61 4.61 0 0 0-1.48 1.06 4.8 4.8 0 0 0-.94 1.64 4.49 4.49 0 0 0 1.33 5 9.65 9.65 0 0 1-4.93-5.6 8.73 8.73 0 0 1-.4-2.24 4.57 4.57 0 0 1 0-.9l-1.18 3.44-.57 1.74-.5 1.75-1 3.5-.82 3.55a7.81 7.81 0 0 1 1.95-2.41zM40.18 79.73a9.7 9.7 0 0 1 7.47.07A4.49 4.49 0 0 0 43 82a4.5 4.5 0 0 0 1.83 6.34 10.18 10.18 0 0 0 4.89 1 22.25 22.25 0 0 0 4.82-.65c1.46-.29 2.72-.69 3.66-1.03s1.49-.56 1.49-.56a40.57 40.57 0 0 0-.62-5.35c-.62-3-1.65-6.55-4.35-8.7a4.52 4.52 0 0 0-6.53 1 4.45 4.45 0 0 0-.12 5.15 11.39 11.39 0 0 1-2.49-3.6 8.58 8.58 0 0 1-.66-3.16 7.89 7.89 0 0 1 .53-3.11 114.84 114.84 0 0 0-7.88 12.17 7.86 7.86 0 0 1 2.61-1.77zM66.34 58.07a4.46 4.46 0 0 0-5.08.85 4.51 4.51 0 0 0 0 6.6c2.51 2.37 6.18 2.89 9.21 3.08 1.51.08 2.82 0 3.82 0s1.59-.12 1.59-.12.16-.58.34-1.54.42-2.27.56-3.78c.24-3 .25-6.76-1.74-9.57a4.58 4.58 0 0 0-8.1 4 9.69 9.69 0 0 1-1.13-7.38 7.87 7.87 0 0 1 1.38-2.83c-1.91 1.5-3.83 3-5.64 4.59s-3.59 3.26-5.34 4.93a7.87 7.87 0 0 1 3-1 9.68 9.68 0 0 1 7.13 2.17zM84.13 38.38a8.78 8.78 0 0 1 3 1.1 11.41 11.41 0 0 1 3.21 3A4.61 4.61 0 0 0 88 41.34a4.74 4.74 0 0 0-2.7.5 4.52 4.52 0 0 0-1.88 6.33c1.75 3 5.12 4.5 8 5.55 1.43.51 2.71.8 3.66 1s1.56.34 1.56.34.32-.51.76-1.37c.22-.43.48-1 .75-1.55s.57-1.22.85-1.92a21.59 21.59 0 0 0 1.33-4.69 10.14 10.14 0 0 0-.3-5 4.49 4.49 0 0 0-6-2.72 4.5 4.5 0 0 0-2.88 4.27 9.72 9.72 0 0 1 1-7.4 7.84 7.84 0 0 1 2.13-2.32 113.57 113.57 0 0 0-13.24 6 7.91 7.91 0 0 1 3.09.02zM152 32.25a4.53 4.53 0 0 0-4.73 2 9.7 9.7 0 0 1 4.83-5.67 8.79 8.79 0 0 1 2.16-.73 4.77 4.77 0 0 1 .89-.08 107.6 107.6 0 0 0-14.4-2 7.74 7.74 0 0 1 2.7 1.59 10 10 0 0 1 3 6.84 4.58 4.58 0 0 0-9 1c-.15 3.44 1.87 6.66 3.71 9 .93 1.16 1.84 2.21 2.52 2.89s1.14 1.1 1.14 1.1l.38-.2 1-.55a31.06 31.06 0 0 0 3.22-2 24.09 24.09 0 0 0 3.65-3.2 10.28 10.28 0 0 0 2.44-4.38 4.53 4.53 0 0 0-.58-3.52 4.43 4.43 0 0 0-2.93-2.09zM122.6 30.89a4.59 4.59 0 0 0-4 3.29 10 10 0 0 1 3-6.83 7.74 7.74 0 0 1 2.7-1.59c-1.21.11-2.42.15-3.62.32l-3.61.46c-1.21.13-2.39.38-3.59.58s-2.39.39-3.57.68a4.78 4.78 0 0 1 .89.08 8.78 8.78 0 0 1 2.16.73 9.7 9.7 0 0 1 4.83 5.67 4.53 4.53 0 0 0-4.73-2 4.43 4.43 0 0 0-3 2 4.53 4.53 0 0 0-.58 3.52 10.29 10.29 0 0 0 2.52 4.37 23.93 23.93 0 0 0 3.64 3.19 30.92 30.92 0 0 0 3.22 2l1.4.76s.45-.39 1.12-1.09 1.58-1.73 2.52-2.9c1.85-2.33 3.87-5.56 3.72-9a4.55 4.55 0 0 0-5.02-4.24zM174.33 33.75l-3.39-1.34a7.84 7.84 0 0 1 2.13 2.32 9.72 9.72 0 0 1 1 7.4 4.5 4.5 0 0 0-2.88-4.27 4.49 4.49 0 0 0-6 2.72 10.15 10.15 0 0 0-.31 5 21.49 21.49 0 0 0 1.33 4.68c.28.7.57 1.34.85 1.91s.53 1.12.75 1.55c.45.87.77 1.39.77 1.39s.59-.1 1.55-.33 2.23-.54 3.67-1c2.86-1 6.24-2.55 8-5.55a4.52 4.52 0 0 0-1.88-6.33 4.74 4.74 0 0 0-2.7-.5 4.61 4.61 0 0 0-2.41 1.12 11.41 11.41 0 0 1 3.21-3 8.78 8.78 0 0 1 3-1.1 7.91 7.91 0 0 1 3.16.07c-2.17-1.09-4.29-2.27-6.52-3.23-1.11-.52-2.21-1.05-3.33-1.51zM189 66.9c.18 1 .35 1.56.35 1.56s.59.08 1.57.12 2.3.1 3.82 0c3-.19 6.72-.71 9.23-3.08a4.52 4.52 0 0 0 0-6.6 4.46 4.46 0 0 0-5.08-.85 9.68 9.68 0 0 1 7.11-2.14 7.88 7.88 0 0 1 3 1 115.6 115.6 0 0 0-11-9.52 7.87 7.87 0 0 1 1.38 2.83 9.69 9.69 0 0 1-1.13 7.38 4.58 4.58 0 0 0-8.1-4c-2 2.81-2 6.53-1.75 9.56.13 1.47.38 2.76.6 3.74zM205.57 85.5c-.1 1-.11 1.59-.11 1.59s.55.24 1.47.56 2.2.74 3.66 1.09a22.34 22.34 0 0 0 4.83.65 10.17 10.17 0 0 0 4.89-1 4.5 4.5 0 0 0 1.84-6.39 4.49 4.49 0 0 0-4.64-2.24 9.7 9.7 0 0 1 7.47-.07 7.86 7.86 0 0 1 2.6 1.77c-1.2-2.11-2.4-4.22-3.74-6.24s-2.72-4-4.12-6a7.89 7.89 0 0 1 .53 3.11 8.58 8.58 0 0 1-.66 3.16 11.39 11.39 0 0 1-2.49 3.6A4.45 4.45 0 0 0 217 74a4.52 4.52 0 0 0-6.53-1c-2.71 2.15-3.73 5.71-4.36 8.68-.32 1.53-.42 2.83-.54 3.82zM224.46 97.44c-3.22 1.3-5.17 4.42-6.63 7.1a32.78 32.78 0 0 0-1.55 3.47c-.37.91-.56 1.5-.56 1.5s.45.39 1.24 1 1.94 1.32 3.21 2.08a21.3 21.3 0 0 0 4.44 2 10.31 10.31 0 0 0 5 .41 4.54 4.54 0 0 0 3-2 4.7 4.7 0 0 0 .58-3.58 4.29 4.29 0 0 0-1.41-2.36 4.56 4.56 0 0 0-2.41-1.1 9.79 9.79 0 0 1 7.19 2 7.81 7.81 0 0 1 2 2.44l-.82-3.55-1-3.5-.5-1.75-.58-1.73-1.18-3.44a4.56 4.56 0 0 1 0 .9 8.73 8.73 0 0 1-.4 2.24 9.65 9.65 0 0 1-4.93 5.6 4.49 4.49 0 0 0 1.33-5 4.8 4.8 0 0 0-.94-1.64 4.61 4.61 0 0 0-1.54-1.02 4.55 4.55 0 0 0-3.54-.07zM241 130.29v-1.82l-.13-1.81a5.51 5.51 0 0 1-.21.87 7.14 7.14 0 0 1-1 2 9.86 9.86 0 0 1-6.3 4 4.62 4.62 0 0 0 2.68-4.39 4.56 4.56 0 0 0-5-4.34c-3.45.34-6.28 2.78-8.36 4.94a31.35 31.35 0 0 0-2.51 2.9c-.59.77-.91 1.28-.91 1.28a29.32 29.32 0 0 0 3.41 4.17c2.08 2.16 4.92 4.61 8.37 4.95a4.56 4.56 0 0 0 5-4.34 4.62 4.62 0 0 0-2.68-4.39 9.86 9.86 0 0 1 6.3 4 7.14 7.14 0 0 1 1 2 5.52 5.52 0 0 1 .21.87l.13-1.81v-1.82l.09-3.63z"/>
</svg>
