<svg xmlns="http://www.w3.org/2000/svg" data-name="Layer 1" viewBox="0 0 267.49 406.68">
  <rect width="267.49" height="406.68" fill="#fff" rx="19.82" ry="19.82"/>
  <path fill="#0d1c2c" d="M223 45.92a2 2 0 0 1-1.3-.36 1.37 1.37 0 0 1-.42-1.1q0-1.08 3.18-4l.48-.46 1.39-1.33q5.74-5.41 5.74-7.88a4.09 4.09 0 0 0-1-2.88 3.39 3.39 0 0 0-2.62-1.1 4.81 4.81 0 0 0-2 .43 4 4 0 0 0-1.55 1.09l-.32.45q-.61 1.11-1.38 1.11a1 1 0 0 1-.85-.37 2.69 2.69 0 0 1-.25-1.39 2.4 2.4 0 0 1 .12-.87 2 2 0 0 1 .43-.59 7.71 7.71 0 0 1 2.63-1.63 8.83 8.83 0 0 1 3.21-.61 6.39 6.39 0 0 1 4.6 1.78 5.82 5.82 0 0 1 1.85 4.37q0 3.25-5.64 8.65-1.44 1.34-2.21 2.11l-2 2h7.58a1.92 1.92 0 0 1 .39-1.1 1.2 1.2 0 0 1 1.73 0 1.48 1.48 0 0 1 .31 1 1.64 1.64 0 0 1 0 .17 1.63 1.63 0 0 0 0 .17l-.13 1.28a1.42 1.42 0 0 1-.3.8.81.81 0 0 1-.65.29zM120.25 254.59A12.73 12.73 0 0 0 133 241.85c0-18.85-25.35-33.29-25.47-33.36S82 223 82 241.85a12.73 12.73 0 0 0 24.4 5.1c-3.88 18.31-17.4 21.24-17.4 21.24h37s-13.48-2.94-17.41-21.24a12.73 12.73 0 0 0 11.66 7.64zM174.75 184.59a12.73 12.73 0 0 0 12.73-12.73c0-18.85-25.35-33.29-25.47-33.36s-25.47 14.51-25.47 33.36a12.73 12.73 0 0 0 24.4 5.1c-3.93 18.3-17.41 21.24-17.41 21.24h37s-13.48-2.94-17.41-21.24a12.73 12.73 0 0 0 11.63 7.63zM232.61 74.49a4.36 4.36 0 0 0 4.39-4.36c0-6.46-8.68-11.4-8.72-11.42s-8.72 5-8.72 11.42a4.36 4.36 0 0 0 8.36 1.75c-1.35 6.27-6 7.27-6 7.27h12.65s-4.62-1-6-7.27a4.36 4.36 0 0 0 4.04 2.61zM46.5 360.77a2 2 0 0 1 1.3.36 1.36 1.36 0 0 1 .42 1.1q0 1.08-3.18 4l-.48.46-1.39 1.33q-5.74 5.41-5.74 7.88a4.09 4.09 0 0 0 1 2.88 3.39 3.39 0 0 0 2.62 1.1 4.81 4.81 0 0 0 2-.43 4 4 0 0 0 1.55-1.12l.32-.45q.61-1.11 1.38-1.11a1 1 0 0 1 .85.37 2.69 2.69 0 0 1 .25 1.39 2.39 2.39 0 0 1-.12.87 2 2 0 0 1-.43.59 7.71 7.71 0 0 1-2.63 1.63 8.82 8.82 0 0 1-3.21.61 6.39 6.39 0 0 1-4.6-1.78 5.82 5.82 0 0 1-1.85-4.37q0-3.25 5.64-8.65 1.44-1.34 2.21-2.11l2-2h-7.56a1.92 1.92 0 0 1-.39 1.1 1.2 1.2 0 0 1-1.73 0 1.48 1.48 0 0 1-.31-1 1.65 1.65 0 0 1 0-.17 1.64 1.64 0 0 0 0-.17l.13-1.28a1.42 1.42 0 0 1 .3-.8.81.81 0 0 1 .65-.29zM36.89 332.2a4.36 4.36 0 0 0-4.36 4.36c0 6.46 8.68 11.4 8.72 11.42s8.72-5 8.72-11.42a4.36 4.36 0 0 0-8.36-1.75c1.35-6.27 6-7.27 6-7.27H34.92s4.62 1 6 7.27a4.36 4.36 0 0 0-4.03-2.61z"/>
</svg>
