<svg xmlns="http://www.w3.org/2000/svg" data-name="Layer 1" viewBox="0 0 267.49 406.68">
  <rect width="267.49" height="406.68" fill="#fff" rx="19.82" ry="19.82"/>
  <path fill="#ec1c24" d="M226.19 28.64h-2.42a2.68 2.68 0 0 1-1.42-.27 1 1 0 0 1-.41-.92 1.08 1.08 0 0 1 .36-.94 4.27 4.27 0 0 1 1.95-.26H229a2.22 2.22 0 0 1 1.24.24 2.08 2.08 0 0 1 .59.89l6.48 16.2h.28a2.16 2.16 0 0 1 1.23.25 1.05 1.05 0 0 1 .33.9 1.16 1.16 0 0 1-.32.94 1.94 1.94 0 0 1-1.18.26h-4.51a3.22 3.22 0 0 1-1.62-.26 1.08 1.08 0 0 1-.36-.94 1 1 0 0 1 .39-.89 2.9 2.9 0 0 1 1.47-.26h1.54l-1.61-3.95h-8.42l-1.43 3.95h1.61a3 3 0 0 1 1.49.26 1 1 0 0 1 .4.89 1.08 1.08 0 0 1-.36.94 3.07 3.07 0 0 1-1.57.26h-4.37a2.61 2.61 0 0 1-1.41-.26 1.1 1.1 0 0 1-.35-.94 1 1 0 0 1 .35-.9 2.5 2.5 0 0 1 1.34-.25h.32zm-.85 8.79h6.78l-3.57-8.79zM134.61 155.93l-29.27 45.53 29.27 45.53 29.27-45.53-29.27-45.53M228.43 56.68l-7.76 12.07 7.76 12.06 7.75-12.06-7.75-12.07M43.64 377.8h2.42a2.68 2.68 0 0 1 1.42.27 1 1 0 0 1 .41.92 1.08 1.08 0 0 1-.36.94 4.26 4.26 0 0 1-1.95.26h-4.72a2.22 2.22 0 0 1-1.24-.24 2.09 2.09 0 0 1-.59-.89l-6.48-16.2h-.28a2.16 2.16 0 0 1-1.23-.25 1.05 1.05 0 0 1-.33-.9 1.16 1.16 0 0 1 .32-.94 2 2 0 0 1 1.18-.26h4.51a3.22 3.22 0 0 1 1.62.26 1.08 1.08 0 0 1 .36.94 1 1 0 0 1-.39.89 2.91 2.91 0 0 1-1.47.26h-1.55l1.61 3.95h8.42l1.43-3.95h-1.61a3 3 0 0 1-1.49-.26 1 1 0 0 1-.4-.89 1.08 1.08 0 0 1 .36-.94 3.08 3.08 0 0 1 1.57-.26h4.36a2.61 2.61 0 0 1 1.41.26 1.09 1.09 0 0 1 .35.94 1 1 0 0 1-.35.9 2.5 2.5 0 0 1-1.34.25h-.32zm.85-8.79h-6.78l3.57 8.79zM41.41 349.75l7.75-12.06-7.75-12.07-7.76 12.07 7.76 12.06"/>
</svg>
