<svg xmlns="http://www.w3.org/2000/svg" data-name="Layer 1" viewBox="0 0 267.49 406.68">
  <rect width="267.49" height="406.68" fill="#fff" rx="19.82" ry="19.82"/>
  <path fill="#ec1c24" d="M231.35 34.51a5.24 5.24 0 0 1 4.08 5.36 6.1 6.1 0 0 1-2.06 4.75 7.66 7.66 0 0 1-5.37 1.85 10 10 0 0 1-4.49-1q-2-1-2-2.13a1.06 1.06 0 0 1 .36-.82 1.25 1.25 0 0 1 .87-.32 9.78 9.78 0 0 1 2 .85 7.67 7.67 0 0 0 3.29.85 4.57 4.57 0 0 0 3.21-1.13 4.07 4.07 0 0 0 .38-5.42 3.89 3.89 0 0 0-2.35-1.3 10.79 10.79 0 0 0-1.18-.13q-1.39-.08-1.39-1.16t1.36-1.14c.35 0 .65-.07.88-.12a3.46 3.46 0 0 0 2.09-1.06 3 3 0 0 0 .97-2.11 3.51 3.51 0 0 0-1-2.57 3.34 3.34 0 0 0-2.49-1 5.64 5.64 0 0 0-2.86.86 5.89 5.89 0 0 1-1.83.86 1.06 1.06 0 0 1-.77-.3 1 1 0 0 1-.31-.75q0-1 1.86-2a8.51 8.51 0 0 1 4.11-1 6.14 6.14 0 0 1 4.29 1.6 5 5 0 0 1 1.72 3.86 4.75 4.75 0 0 1-.82 2.87 5.28 5.28 0 0 1-2.55 1.75zM134.61 165.94l-22.91 35.63 22.91 35.64 22.91-35.64-22.91-35.63M93.3 221.51l-22.91 35.63 22.91 35.64 22.91-35.64-22.91-35.63M175.92 111.15l-22.91 35.63 22.91 35.64 22.91-35.64-22.91-35.63M228.43 56.68l-7.76 12.07 7.76 12.06 7.75-12.06-7.75-12.07M38.49 371.93a5.24 5.24 0 0 1-4.08-5.36 6.1 6.1 0 0 1 2.06-4.75 7.66 7.66 0 0 1 5.32-1.85 10 10 0 0 1 4.49 1q2 1 2 2.13a1.06 1.06 0 0 1-.36.82 1.25 1.25 0 0 1-.87.32 9.81 9.81 0 0 1-2-.85 7.68 7.68 0 0 0-3.29-.85 4.57 4.57 0 0 0-3.21 1.13 4.07 4.07 0 0 0-.38 5.42 3.88 3.88 0 0 0 2.35 1.3 10.91 10.91 0 0 0 1.18.13q1.39.08 1.39 1.16t-1.36 1.14c-.35 0-.65.07-.88.12a3.46 3.46 0 0 0-2.09 1.06 3 3 0 0 0-.8 2.09 3.51 3.51 0 0 0 1 2.57 3.34 3.34 0 0 0 2.49 1 5.64 5.64 0 0 0 2.86-.86 5.9 5.9 0 0 1 1.83-.86 1.06 1.06 0 0 1 .77.3 1 1 0 0 1 .31.75q0 1-1.86 2a8.5 8.5 0 0 1-4.11 1 6.14 6.14 0 0 1-4.3-1.57 5 5 0 0 1-1.72-3.86 4.76 4.76 0 0 1 .82-2.87 5.28 5.28 0 0 1 2.44-1.76zM41.41 349.75l7.75-12.06-7.75-12.07-7.76 12.07 7.76 12.06"/>
</svg>
