<svg xmlns="http://www.w3.org/2000/svg" data-name="Layer 1" viewBox="0 0 267.49 406.68">
  <rect width="267.49" height="406.68" fill="#fff" rx="19.82" ry="19.82"/>
  <path fill="#0d1c2c" d="M151.53 224.8a17.78 17.78 0 0 0 .52-35.55 19.54 19.54 0 1 0-36.62 0 17.78 17.78 0 1 0 16.82 24.88c-5.48 25.57-24.32 29.68-24.32 29.68h51.61s-18.84-4.11-24.32-29.68a17.78 17.78 0 0 0 16.31 10.67zM232.74 74.34a4.49 4.49 0 0 0 .13-9 4.94 4.94 0 1 0-9.25 0 4.49 4.49 0 1 0 4.25 6.28c-1.39 6.46-6.14 7.5-6.14 7.5h13s-4.76-1-6.14-7.5a4.49 4.49 0 0 0 4.15 2.72zM226.19 28.63h-2.42a2.68 2.68 0 0 1-1.42-.27 1 1 0 0 1-.41-.92 1.08 1.08 0 0 1 .36-.94 4.27 4.27 0 0 1 1.95-.26H229a2.22 2.22 0 0 1 1.24.24 2.08 2.08 0 0 1 .59.89l6.48 16.2h.28a2.16 2.16 0 0 1 1.23.25 1.05 1.05 0 0 1 .33.9 1.16 1.16 0 0 1-.32.94 1.94 1.94 0 0 1-1.18.26h-4.51a3.22 3.22 0 0 1-1.62-.26 1.08 1.08 0 0 1-.36-.94 1 1 0 0 1 .39-.89 2.9 2.9 0 0 1 1.47-.26h1.54l-1.61-3.95h-8.42l-1.43 3.95h1.61a3 3 0 0 1 1.49.26 1 1 0 0 1 .4.89 1.08 1.08 0 0 1-.36.94 3.07 3.07 0 0 1-1.57.26h-4.37a2.61 2.61 0 0 1-1.41-.26 1.1 1.1 0 0 1-.35-.94 1 1 0 0 1 .35-.9 2.5 2.5 0 0 1 1.34-.25h.32zm-.85 8.79h6.78l-3.57-8.79zM36.89 332.3a4.49 4.49 0 0 0-.13 9 4.94 4.94 0 1 0 9.25 0 4.49 4.49 0 1 0-4.26-6.3c1.39-6.46 6.14-7.5 6.14-7.5h-13s4.76 1 6.14 7.5a4.49 4.49 0 0 0-4.14-2.7zM43.44 378h2.42a2.67 2.67 0 0 1 1.42.27 1 1 0 0 1 .41.92 1.08 1.08 0 0 1-.36.94 4.28 4.28 0 0 1-1.95.26h-4.73a2.22 2.22 0 0 1-1.24-.24 2.09 2.09 0 0 1-.59-.89l-6.48-16.2h-.28a2.16 2.16 0 0 1-1.23-.25 1.05 1.05 0 0 1-.33-.9 1.16 1.16 0 0 1 .32-.94 2 2 0 0 1 1.18-.26h4.5a3.22 3.22 0 0 1 1.62.26 1.08 1.08 0 0 1 .36.94 1 1 0 0 1-.39.89 2.89 2.89 0 0 1-1.47.26h-1.54l1.61 3.94h8.42l1.43-3.95h-1.61a3 3 0 0 1-1.49-.26 1 1 0 0 1-.4-.89 1.08 1.08 0 0 1 .36-.94 3.08 3.08 0 0 1 1.57-.26h4.36a2.61 2.61 0 0 1 1.41.26 1.1 1.1 0 0 1 .35.94 1 1 0 0 1-.35.9 2.5 2.5 0 0 1-1.34.25h-.32zm.85-8.79H37.5l3.56 8.79z"/>
</svg>
