<svg xmlns="http://www.w3.org/2000/svg" data-name="Layer 1" viewBox="0 0 267.49 406.68">
  <rect width="267.49" height="406.68" fill="#fff" rx="19.82" ry="19.82"/>
  <path fill="#0d1c2c" d="M226.19 28.64h-2.42a2.68 2.68 0 0 1-1.42-.27 1 1 0 0 1-.41-.92 1.08 1.08 0 0 1 .36-.94 4.27 4.27 0 0 1 1.95-.26H229a2.22 2.22 0 0 1 1.24.24 2.08 2.08 0 0 1 .59.89l6.48 16.2h.28a2.16 2.16 0 0 1 1.23.25 1.05 1.05 0 0 1 .33.9 1.16 1.16 0 0 1-.32.94 1.94 1.94 0 0 1-1.18.26h-4.51a3.22 3.22 0 0 1-1.62-.26 1.08 1.08 0 0 1-.36-.94 1 1 0 0 1 .39-.89 2.9 2.9 0 0 1 1.47-.26h1.54l-1.61-3.95h-8.42l-1.43 3.95h1.61a3 3 0 0 1 1.49.26 1 1 0 0 1 .4.89 1.08 1.08 0 0 1-.36.94 3.07 3.07 0 0 1-1.57.26h-4.37a2.61 2.61 0 0 1-1.41-.26 1.1 1.1 0 0 1-.35-.94 1 1 0 0 1 .35-.9 2.5 2.5 0 0 1 1.34-.25h.32zm-.85 8.79h6.78l-3.57-8.79zM151.53 225.33a17.26 17.26 0 0 0 17.26-17.26c0-25.55-34.36-45.13-34.52-45.23 0 0-34.52 19.67-34.52 45.23a17.26 17.26 0 0 0 33.08 6.91c-5.33 24.81-23.6 28.79-23.6 28.79h50.09s-18.28-4-23.6-28.79a17.26 17.26 0 0 0 15.81 10.35zM232.61 74.49a4.36 4.36 0 0 0 4.39-4.36c0-6.46-8.68-11.4-8.72-11.42s-8.72 5-8.72 11.42a4.36 4.36 0 0 0 8.36 1.75c-1.35 6.27-6 7.27-6 7.27h12.65s-4.62-1-6-7.27a4.36 4.36 0 0 0 4.04 2.61zM43.3 378.05h2.42a2.68 2.68 0 0 1 1.42.27 1 1 0 0 1 .41.92 1.08 1.08 0 0 1-.36.94 4.26 4.26 0 0 1-1.95.26h-4.72a2.22 2.22 0 0 1-1.24-.24 2.09 2.09 0 0 1-.59-.89l-6.48-16.2h-.28a2.16 2.16 0 0 1-1.23-.25 1.05 1.05 0 0 1-.33-.9 1.16 1.16 0 0 1 .32-.94 2 2 0 0 1 1.18-.26h4.51a3.22 3.22 0 0 1 1.62.26 1.08 1.08 0 0 1 .36.94 1 1 0 0 1-.39.89 2.91 2.91 0 0 1-1.47.26h-1.55l1.61 3.95H45l1.43-3.95H44.8a3 3 0 0 1-1.49-.26 1 1 0 0 1-.4-.89 1.08 1.08 0 0 1 .36-.94 3.08 3.08 0 0 1 1.57-.26h4.36a2.61 2.61 0 0 1 1.41.26 1.09 1.09 0 0 1 .35.94 1 1 0 0 1-.35.9 2.5 2.5 0 0 1-1.34.25h-.32zm.85-8.79h-6.78l3.57 8.79zM36.89 332.2a4.36 4.36 0 0 0-4.36 4.36c0 6.46 8.68 11.4 8.72 11.42s8.72-5 8.72-11.42a4.36 4.36 0 0 0-8.36-1.75c1.35-6.27 6-7.27 6-7.27H34.92s4.62 1 6 7.27a4.36 4.36 0 0 0-4.03-2.61z"/>
</svg>
