<svg xmlns="http://www.w3.org/2000/svg" data-name="Layer 1" viewBox="0 0 74.26 50.31">
  <path fill="#ffc865" d="M13.39 50.23l23.74.09h23.74A29.37 29.37 0 0 1 61.7 44H12.56a29 29 0 0 1 .83 6.23zM71.72 19.36a2.54 2.54 0 0 0-2.36 3.49l-5.57 2.45a6 6 0 0 1-8.43-4.76l-.12-1a3.61 3.61 0 1 0-3.24-1.2l-1.82 1.74A5.24 5.24 0 0 1 41.57 18l-2.79-8.11a5.09 5.09 0 1 0-3.31 0L32.68 18a5.24 5.24 0 0 1-8.59 2.06l-1.82-1.76A3.59 3.59 0 1 0 19 19.58l-.1.83A5.93 5.93 0 0 1 10.47 25l-5.55-2.23A2.52 2.52 0 1 0 4 24a74.44 74.44 0 0 1 6.39 13.39h53.52A74.49 74.49 0 0 1 70.3 24a2.54 2.54 0 1 0 1.42-4.65zM12 41.51h50.27a21.49 21.49 0 0 0 1-3.29H11a21.41 21.41 0 0 0 1 3.29z"/>
</svg>
