<svg xmlns="http://www.w3.org/2000/svg" data-name="Layer 1" viewBox="0 0 81.96 114.56"><path fill="none" stroke="#f1ebdc" stroke-width="7" stroke-miterlimit="10" d="M77.05 50.86C82.09 31 74.43 3.5 41 3.5S-.13 31 4.91 50.86c0 19.34 4.82 26.9 9.93 30.74C17.28 97 26.13 96 31.51 104c1.16 3.77 3.42 7.11 9.47 7 6.05.09 8.31-3.25 9.47-7 5.38-8 14.23-7 16.68-22.4 5.1-3.84 9.87-11.4 9.92-30.74z"/><g data-name="&lt;Group&gt;"><g data-name="&lt;Group&gt;"><path fill="#f4b12f" d="M41.79 109.91l4.09-1.91 4.59-7.71 7.46-5.88 5.9-10.67 9.37-15.53L75.12 52l-1.24-25.6L55.54 8.83 34.65 7.18s-22.14 8.68-22.14 9.07-6.82 20.49-6.82 20.49l2.24 17.54.93 16.36 8.14 11 2 8.44 7.3 7.07 4.78 4.13 2.09 5.14s4.06 3.71 4.17 3.51a33.35 33.35 0 0 1 4.45-.02z" data-name="&lt;Path&gt;"/><path fill="#b9882d" d="M49.36 66.88c-6.68-4.78-7.62-14.42-7.62-14.42l-2.15.46C40.8 60.27 36 71.53 36 71.53 27.88 58.72 9 56 9 56s-1.72 1.2-1.72 1.42v5.71c0 .59 2.34 10.9 2.34 10.9l8 8.12L19 90.06l4.46 4.8s4.27 5 4.61 3a8.1 8.1 0 0 0-.61-4.1A6.52 6.52 0 0 1 30 97.32l1.11 3.93 3 5.7c0 .1 4.78 2.39 4.78 2.39l2.66-1c-2.63-2.51-3-7.74-3-7.74l4.77-1.94S37 97.82 34 94.43l.51-3.59-2.15-2.16a9.16 9.16 0 0 1 .53-2.23 17.73 17.73 0 0 0 3-4.69l3.07 1.57a4.61 4.61 0 0 0-1.09-3.75s2.36-1.23 2.84-2.47a14.93 14.93 0 0 0 3.79 2.13 5.24 5.24 0 0 0-2 3.95l2-.91 1-.51a8.8 8.8 0 0 1 2.63-.91 17.62 17.62 0 0 0 6.83 2.1s-3 8.13-5.06 16c-1.88 7.22 4.26-.51 5.31-1.87l6.49-6.22L63 84.5l-2-1.56 5.28-2.34a90.73 90.73 0 0 0 5.22-9.7c2.67-5.93.7-14.94.7-14.94a47 47 0 0 0-22.84 10.92z" data-name="&lt;Path&gt;"/><path fill="#b9882d" d="M13.3 52.46a127.31 127.31 0 0 0 11.56 7.11c.88-7.94-6.67-16.5-7.71-26.25-.68-6.43 2.63-17.46 10.73-21l-2.63-2.46-11.69 7.76L7.5 28.89 4.56 40l2.21 13.18 6.79 1.47 4.68.88zM56.42 59.57c3-14.66 18-21.05 13.59-32.83-.87-2.3 1.72-.86 3 2.67C74.55 34 75 41.33 75 41.33L73.94 49s0 4.17-.29 4.17-17.23 6.4-17.23 6.4z" data-name="&lt;Path&gt;"/><path fill="#231f20" d="M45.29 75.62S51.81 62 67.71 62c0 0 .12 17.19-13.34 17.19-6.92.04-9.08-3.57-9.08-3.57zM42.39 84.5s-.4-2.73 1.41-3.9a3 3 0 0 1 1.65 1.15s-2.38.88-3.06 2.75zM42.27 44.91a56.66 56.66 0 0 1-1.63 13.39 55.68 55.68 0 0 1 0-26.78 56.66 56.66 0 0 1 1.63 13.39zM40.64 73.14a7.62 7.62 0 0 0 2.69 3.8 5.45 5.45 0 0 1-2.69-.94zM36 75.62S29.47 62 13.56 62c0 0-.12 17.19 13.34 17.19 6.93.04 9.1-3.57 9.1-3.57zM38.88 84.5s.4-2.73-1.41-3.9a3 3 0 0 0-1.65 1.15s2.38.88 3.06 2.75zM40.64 73.14a7.62 7.62 0 0 1-2.69 3.8 5.45 5.45 0 0 0 2.69-.94z" data-name="&lt;Path&gt;"/><path fill="#231f20" d="M28.67 84.5a28.27 28.27 0 0 0 26.23-1.56s-3.69 7.72-5.25 11.63A28.63 28.63 0 0 1 34 94.43a95.43 95.43 0 0 0-5.33-9.93zM38.55 100.56s1.9-3.18 5.16-1.79a15.5 15.5 0 0 1-5.16 1.79z" data-name="&lt;Path&gt;"/><path fill="#fff" d="M31.63 86.66s12.27 3.66 20.71-1.32a29.23 29.23 0 0 1-2.7 3.61s-3.35 1.88-6.08 1.88a11.56 11.56 0 0 0 5.44-.56 15.14 15.14 0 0 1-.83 3s-7.81 1.78-13.56 0a3.69 3.69 0 0 1-.17-2.38 7.63 7.63 0 0 0 3.19-.13 13.11 13.11 0 0 1-4.28-1.22 9.51 9.51 0 0 1-1.72-2.88z" data-name="&lt;Path&gt;"/><path fill="#f1ebdc" d="M64.27 68.21a15.52 15.52 0 0 1-6.39 7.46s6.44-.88 6.39-7.46zM26.32 76.76s3.9-.34 6.29-2.34c0 0 .05 3.26-6.29 2.34z" data-name="&lt;Path&gt;"/><ellipse cx="55.41" cy="24.02" fill="#f1ebdc" data-name="&lt;Ellipse&gt;" rx="3.1" ry="4.24" transform="rotate(-58.85 55.41 24.02)"/><ellipse cx="52.39" cy="29.47" fill="#f1ebdc" data-name="&lt;Ellipse&gt;" rx="1.43" ry="1.96" transform="matrix(.52 -.86 .86 .52 .07 59.06)"/></g><path fill="#f1ebdc" d="M3.14 40.28c.37.07 2.67 2.34 4.3 5.85a16.93 16.93 0 0 0-4.81-2.43c-1.63-.19.51-3.42.51-3.42zM79.62 39.08a22.44 22.44 0 0 0-5.4 7.06A16.93 16.93 0 0 1 79 43.7c1.61-.19.62-4.62.62-4.62z" data-name="&lt;Path&gt;"/><path fill="#231f20" d="M40.64 3.5C7.19 3.5-.47 31 4.57 50.86c0 19.34 4.82 26.9 9.93 30.74C16.94 97 25.78 96 31.17 104c1.16 3.77 3.42 7.11 9.47 7 6.05.09 8.31-3.25 9.47-7 5.38-8 14.22-7 16.67-22.4 5.11-3.84 9.89-11.4 9.93-30.74C81.74 31 74.08 3.5 40.64 3.5zM56 88c1.26-1.48 3.25-2.32 5.51-3.37-1.37 10.28-6.86 9.48-10.28 14.37a11.94 11.94 0 0 1 1.37-4.18c-5 3.22-1.35 12.88-12 12.88s-7-9.66-12-12.88A11.94 11.94 0 0 1 30 99c-3.42-4.92-8.91-4.12-10.31-14.44C22 85.64 24 86.48 25.25 88 23.59 80.6 9 82 9 56c7.56-.15 15.85 3.61 15.85 3.61a23.56 23.56 0 0 0-11.63-8.73 26.68 26.68 0 0 0-4.74-12.19c.63-11.1 5.42-18 11.31-22.23a23.76 23.76 0 0 0-.7 5.57S23.92 11 38.88 10.14h1.75c8.61 0 30.77 3.85 32.16 28.65a26.76 26.76 0 0 0-4.72 12.16 27 27 0 0 0-11.66 8.68s8.3-3.81 15.86-3.63c0 26-14.59 24.6-16.27 32z"/></g></svg>