<svg xmlns="http://www.w3.org/2000/svg" data-name="Layer 1" viewBox="0 0 243 81.75">
  <path fill="#fc5e81" d="M7.59 0H0v15.75h15.19V0h-7.6"/>
  <ellipse cx="7.59" cy="7.88" fill="#0d1c2c" rx="3.38" ry="3.5"/>
  <path fill="#0d1c2c" d="M22.78 0h-7.59v15.75h15.19V0h-7.6"/>
  <ellipse cx="22.78" cy="7.88" fill="#fc5e81" rx="3.38" ry="3.5"/>
  <path fill="#fc5e81" d="M37.97 0h-7.59v15.75h15.18V0h-7.59"/>
  <ellipse cx="37.97" cy="7.88" fill="#0d1c2c" rx="3.38" ry="3.5"/>
  <path fill="#0d1c2c" d="M53.16 0h-7.6v15.75h15.19V0h-7.59"/>
  <ellipse cx="53.16" cy="7.88" fill="#fc5e81" rx="3.38" ry="3.5"/>
  <path fill="#fc5e81" d="M68.34 0h-7.59v15.75h15.19V0h-7.6"/>
  <ellipse cx="68.34" cy="7.88" fill="#0d1c2c" rx="3.38" ry="3.5"/>
  <path fill="#0d1c2c" d="M83.53 0h-7.59v15.75h15.19V0h-7.6"/>
  <ellipse cx="83.53" cy="7.88" fill="#fc5e81" rx="3.38" ry="3.5"/>
  <path fill="#fc5e81" d="M98.72 0h-7.59v15.75h15.18V0h-7.59"/>
  <ellipse cx="98.72" cy="7.88" fill="#0d1c2c" rx="3.38" ry="3.5"/>
  <path fill="#0d1c2c" d="M113.91 0h-7.6v15.75h15.19V0h-7.59"/>
  <ellipse cx="113.91" cy="7.88" fill="#fc5e81" rx="3.38" ry="3.5"/>
  <path fill="#fc5e81" d="M129.09 0h-7.59v15.75h15.19V0h-7.6"/>
  <ellipse cx="129.09" cy="7.88" fill="#0d1c2c" rx="3.38" ry="3.5"/>
  <path fill="#0d1c2c" d="M144.28 0h-7.59v15.75h15.19V0h-7.6"/>
  <ellipse cx="144.28" cy="7.88" fill="#fc5e81" rx="3.38" ry="3.5"/>
  <path fill="#fc5e81" d="M159.47 0h-7.59v15.75h15.18V0h-7.59"/>
  <ellipse cx="159.47" cy="7.88" fill="#0d1c2c" rx="3.38" ry="3.5"/>
  <path fill="#0d1c2c" d="M174.66 0h-7.6v15.75h15.19V0h-7.59"/>
  <ellipse cx="174.66" cy="7.88" fill="#fc5e81" rx="3.38" ry="3.5"/>
  <path fill="#fc5e81" d="M189.84 0h-7.59v15.75h15.19V0h-7.6"/>
  <ellipse cx="189.84" cy="7.88" fill="#0d1c2c" rx="3.38" ry="3.5"/>
  <path fill="#0d1c2c" d="M205.03 0h-7.59v15.75h15.19V0h-7.6"/>
  <ellipse cx="205.03" cy="7.88" fill="#fc5e81" rx="3.38" ry="3.5"/>
  <path fill="#fc5e81" d="M220.22 0h-7.59v15.75h15.18V0h-7.59"/>
  <ellipse cx="220.22" cy="7.88" fill="#0d1c2c" rx="3.38" ry="3.5"/>
  <path fill="#0d1c2c" d="M235.41 0h-7.6v15.75H243V0h-7.59"/>
  <ellipse cx="235.41" cy="7.88" fill="#fc5e81" rx="3.38" ry="3.5"/>
  <path fill="#fc5e81" d="M7.59 66H0v15.75h15.19V66h-7.6"/>
  <ellipse cx="7.59" cy="73.88" fill="#0d1c2c" rx="3.38" ry="3.5"/>
  <path fill="#0d1c2c" d="M22.78 66h-7.59v15.75h15.19V66h-7.6"/>
  <ellipse cx="22.78" cy="73.88" fill="#fc5e81" rx="3.38" ry="3.5"/>
  <path fill="#fc5e81" d="M37.97 66h-7.59v15.75h15.18V66h-7.59"/>
  <ellipse cx="37.97" cy="73.88" fill="#0d1c2c" rx="3.38" ry="3.5"/>
  <path fill="#0d1c2c" d="M53.16 66h-7.6v15.75h15.19V66h-7.59"/>
  <ellipse cx="53.16" cy="73.88" fill="#fc5e81" rx="3.38" ry="3.5"/>
  <path fill="#fc5e81" d="M68.34 66h-7.59v15.75h15.19V66h-7.6"/>
  <ellipse cx="68.34" cy="73.88" fill="#0d1c2c" rx="3.38" ry="3.5"/>
  <path fill="#0d1c2c" d="M83.53 66h-7.59v15.75h15.19V66h-7.6"/>
  <ellipse cx="83.53" cy="73.88" fill="#fc5e81" rx="3.38" ry="3.5"/>
  <path fill="#fc5e81" d="M98.72 66h-7.59v15.75h15.18V66h-7.59"/>
  <ellipse cx="98.72" cy="73.88" fill="#0d1c2c" rx="3.38" ry="3.5"/>
  <path fill="#0d1c2c" d="M113.91 66h-7.6v15.75h15.19V66h-7.59"/>
  <ellipse cx="113.91" cy="73.88" fill="#fc5e81" rx="3.38" ry="3.5"/>
  <path fill="#fc5e81" d="M129.09 66h-7.59v15.75h15.19V66h-7.6"/>
  <ellipse cx="129.09" cy="73.88" fill="#0d1c2c" rx="3.38" ry="3.5"/>
  <path fill="#0d1c2c" d="M144.28 66h-7.59v15.75h15.19V66h-7.6"/>
  <ellipse cx="144.28" cy="73.88" fill="#fc5e81" rx="3.38" ry="3.5"/>
  <path fill="#fc5e81" d="M159.47 66h-7.59v15.75h15.18V66h-7.59"/>
  <ellipse cx="159.47" cy="73.88" fill="#0d1c2c" rx="3.38" ry="3.5"/>
  <path fill="#0d1c2c" d="M174.66 66h-7.6v15.75h15.19V66h-7.59"/>
  <ellipse cx="174.66" cy="73.88" fill="#fc5e81" rx="3.38" ry="3.5"/>
  <path fill="#fc5e81" d="M189.84 66h-7.59v15.75h15.19V66h-7.6"/>
  <ellipse cx="189.84" cy="73.88" fill="#0d1c2c" rx="3.38" ry="3.5"/>
  <path fill="#0d1c2c" d="M205.03 66h-7.59v15.75h15.19V66h-7.6"/>
  <ellipse cx="205.03" cy="73.88" fill="#fc5e81" rx="3.38" ry="3.5"/>
  <path fill="#fc5e81" d="M220.22 66h-7.59v15.75h15.18V66h-7.59"/>
  <ellipse cx="220.22" cy="73.88" fill="#0d1c2c" rx="3.38" ry="3.5"/>
  <path fill="#0d1c2c" d="M235.41 66h-7.6v15.75H243V66h-7.59"/>
  <ellipse cx="235.41" cy="73.88" fill="#fc5e81" rx="3.38" ry="3.5"/>
  <path fill="#0d1c2c" d="M29.81 48.77A7.58 7.58 0 0 0 30 33.61a8.33 8.33 0 1 0-15.62 0 7.58 7.58 0 1 0 7.18 10.61c-2.31 10.9-10.34 12.66-10.34 12.66h22s-8-1.75-10.37-12.66a7.58 7.58 0 0 0 6.96 4.55zM79.06 48.77a7.58 7.58 0 0 0 .22-15.16 8.33 8.33 0 1 0-15.62 0 7.58 7.58 0 1 0 7.18 10.61c-2.34 10.9-10.37 12.66-10.37 12.66h22s-8-1.75-10.37-12.66a7.58 7.58 0 0 0 6.96 4.55zM128.31 48.77a7.58 7.58 0 0 0 .22-15.16 8.33 8.33 0 1 0-15.62 0 7.58 7.58 0 1 0 7.18 10.61c-2.34 10.91-10.37 12.66-10.37 12.66h22s-8-1.75-10.37-12.66a7.58 7.58 0 0 0 6.96 4.55zM177.56 48.77a7.58 7.58 0 0 0 .22-15.16 8.33 8.33 0 1 0-15.62 0 7.58 7.58 0 1 0 7.18 10.61C167 55.12 159 56.88 159 56.88h22s-8-1.75-10.37-12.66a7.58 7.58 0 0 0 6.93 4.55zM226.81 48.77a7.58 7.58 0 0 0 .19-15.16 8.33 8.33 0 1 0-15.62 0 7.58 7.58 0 1 0 7.18 10.61c-2.34 10.91-10.37 12.66-10.37 12.66h22s-8-1.75-10.37-12.66a7.58 7.58 0 0 0 6.99 4.55z"/>
</svg>
