<svg xmlns="http://www.w3.org/2000/svg" data-name="Layer 1" viewBox="0 0 247 88">
  <path fill="#0d1c2c" d="M32.4 51.87a7.6 7.6 0 0 0 7.6-7.6C40 33 24.86 24.39 24.79 24.35S9.58 33 9.58 44.27a7.6 7.6 0 0 0 14.57 3C21.81 58.24 13.76 60 13.76 60h22.07s-8.05-1.76-10.4-12.68a7.6 7.6 0 0 0 6.97 4.55zM81.4 51.87a7.6 7.6 0 0 0 7.6-7.6C89 33 73.86 24.39 73.79 24.35S58.58 33 58.58 44.27a7.6 7.6 0 0 0 14.57 3C70.81 58.24 62.76 60 62.76 60h22.07s-8.05-1.76-10.4-12.68a7.6 7.6 0 0 0 6.97 4.55zM130.4 51.87a7.6 7.6 0 0 0 7.6-7.6c0-11.26-15.14-19.88-15.21-19.92S107.58 33 107.58 44.27a7.6 7.6 0 0 0 14.57 3C119.81 58.24 111.76 60 111.76 60h22.07s-8.05-1.76-10.4-12.68a7.6 7.6 0 0 0 7 4.56M179.4 51.87a7.6 7.6 0 0 0 7.6-7.6c0-11.26-15.14-19.88-15.21-19.92S156.58 33 156.58 44.27a7.6 7.6 0 0 0 14.57 3C168.81 58.24 160.76 60 160.76 60h22.07s-8.05-1.76-10.4-12.68a7.6 7.6 0 0 0 6.97 4.55zM228.4 51.87a7.6 7.6 0 0 0 7.6-7.6c0-11.26-15.14-19.88-15.21-19.92S205.58 33 205.58 44.27a7.6 7.6 0 0 0 14.57 3C217.81 58.24 209.76 60 209.76 60h22.07s-8.05-1.76-10.4-12.68a7.6 7.6 0 0 0 6.97 4.55z"/>
  <path fill="none" stroke="#f7b230" stroke-width="4" stroke-miterlimit="10" d="M2 5c12.15 0 12.15 10 24.3 10S38.45 5 50.59 5s12.15 10 24.3 10S87 5 99.19 5s12.15 10 24.3 10 12.15-10 24.3-10 12.15 10 24.3 10 12.15-10 24.3-10 12.15 10 24.3 10S232.85 5 245 5" stroke-linecap="round"/>
  <circle cx="25.75" cy="3.5" r="3.5" fill="#f7b230"/>
  <circle cx="50.75" cy="16.5" r="3.5" fill="#f7b230"/>
  <circle cx="74.75" cy="3.5" r="3.5" fill="#f7b230"/>
  <circle cx="98.75" cy="16.5" r="3.5" fill="#f7b230"/>
  <circle cx="122.75" cy="3.5" r="3.5" fill="#f7b230"/>
  <circle cx="147.75" cy="16.5" r="3.5" fill="#f7b230"/>
  <circle cx="171.75" cy="3.5" r="3.5" fill="#f7b230"/>
  <circle cx="196.75" cy="16.5" r="3.5" fill="#f7b230"/>
  <circle cx="220.75" cy="3.5" r="3.5" fill="#f7b230"/>
  <path fill="none" stroke="#f7b230" stroke-width="4" stroke-miterlimit="10" d="M2 73c12.15 0 12.15 10 24.3 10s12.15-10 24.29-10 12.15 10 24.3 10S87 73 99.19 73s12.15 10 24.3 10 12.15-10 24.3-10 12.15 10 24.3 10 12.15-10 24.3-10 12.15 10 24.3 10S232.85 73 245 73" stroke-linecap="round"/>
  <circle cx="25.75" cy="71.5" r="3.5" fill="#f7b230"/>
  <circle cx="50.75" cy="84.5" r="3.5" fill="#f7b230"/>
  <circle cx="74.75" cy="71.5" r="3.5" fill="#f7b230"/>
  <circle cx="98.75" cy="84.5" r="3.5" fill="#f7b230"/>
  <circle cx="122.75" cy="71.5" r="3.5" fill="#f7b230"/>
  <circle cx="147.75" cy="84.5" r="3.5" fill="#f7b230"/>
  <circle cx="171.75" cy="71.5" r="3.5" fill="#f7b230"/>
  <circle cx="196.75" cy="84.5" r="3.5" fill="#f7b230"/>
  <circle cx="220.75" cy="71.5" r="3.5" fill="#f7b230"/>
</svg>
