<svg xmlns="http://www.w3.org/2000/svg" data-name="Layer 1" viewBox="0 0 256.74 76.9">
  <path fill="#fc5e81" d="M46.37 33.32a8.18 8.18 0 0 0-16.37 0 8.18 8.18 0 0 0-16.37 0c0 12.12 16.29 21.4 16.37 21.44s16.37-9.32 16.37-21.44zM95.37 33.32a8.18 8.18 0 0 0-16.37 0 8.18 8.18 0 0 0-16.37 0c0 12.12 16.29 21.4 16.37 21.44s16.37-9.32 16.37-21.44zM145.37 33.32a8.18 8.18 0 0 0-16.37 0 8.18 8.18 0 0 0-16.37 0c0 12.12 16.29 21.4 16.37 21.44s16.37-9.32 16.37-21.44zM194.37 33.32a8.18 8.18 0 0 0-16.37 0 8.18 8.18 0 0 0-16.37 0c0 12.12 16.29 21.4 16.37 21.44s16.37-9.32 16.37-21.44zM242.37 33.32a8.18 8.18 0 0 0-16.37 0 8.18 8.18 0 0 0-16.37 0c0 12.12 16.29 21.4 16.37 21.44s16.37-9.32 16.37-21.44z"/>
  <path fill="#0d1c2c" d="M13.88 0l3.31 5.95 3.31 5.95 3.31-5.95L27.12 0H13.88M34 0l-3.31 5.95-3.31 5.95h13.24l-3.31-5.95L34 0M40.88 0l3.31 5.95 3.31 5.95 3.31-5.95L54.12 0H40.88M61 0l-3.31 5.95-3.31 5.95h13.24l-3.31-5.95L61 0M67.88 0l3.31 5.95 3.31 5.95 3.31-5.95L81.12 0H67.88M88 0l-3.31 5.95-3.31 5.95h13.24l-3.31-5.95L88 0M94.88 0l3.31 5.95 3.31 5.95 3.31-5.95L108.12 0H94.88M115 0l-3.31 5.95-3.31 5.95h13.24l-3.31-5.95L115 0M121.88 0l3.31 5.95 3.31 5.95 3.31-5.95L135.12 0h-13.24M142 0l-3.31 5.95-3.31 5.95h13.24l-3.31-5.95L142 0M148.88 0l3.31 5.95 3.31 5.95 3.31-5.95L162.12 0h-13.24M169 0l-3.31 5.95-3.31 5.95h13.24l-3.31-5.95L169 0M175.88 0l3.31 5.95 3.31 5.95 3.31-5.95L189.12 0h-13.24M196 0l-3.31 5.95-3.31 5.95h13.24l-3.31-5.95L196 0M202.88 0l3.31 5.95 3.31 5.95 3.31-5.95L216.12 0h-13.24M223 0l-3.31 5.95-3.31 5.95h13.24l-3.31-5.95L223 0M236.5 0h-6.62l3.31 5.95 3.31 5.95 3.31-5.95L243.12 0h-6.62M253.3 5.95L249.87 0l-3.43 5.95L243 11.9h13.74l-3.44-5.95M6.87 0L3.44 5.95 0 11.9h13.74L10.3 5.95 6.87 0M13.88 65l3.31 5.95 3.31 5.95 3.31-5.95L27.12 65H13.88M34 65l-3.31 5.95-3.31 5.95h13.24l-3.31-5.95L34 65M40.88 65l3.31 5.95 3.31 5.95 3.31-5.95L54.12 65H40.88M61 65l-3.31 5.95-3.31 5.95h13.24l-3.31-5.95L61 65M67.88 65l3.31 5.95 3.31 5.95 3.31-5.95L81.12 65H67.88M88 65l-3.31 5.95-3.31 5.95h13.24l-3.31-5.95L88 65M94.88 65l3.31 5.95 3.31 5.95 3.31-5.95 3.31-5.95H94.88M115 65l-3.31 5.95-3.31 5.95h13.24l-3.31-5.95L115 65M121.88 65l3.31 5.95 3.31 5.95 3.31-5.95 3.31-5.95h-13.24M142 65l-3.31 5.95-3.31 5.95h13.24l-3.31-5.95L142 65M148.88 65l3.31 5.95 3.31 5.95 3.31-5.95 3.31-5.95h-13.24M169 65l-3.31 5.95-3.31 5.95h13.24l-3.31-5.95L169 65M175.88 65l3.31 5.95 3.31 5.95 3.31-5.95 3.31-5.95h-13.24M196 65l-3.31 5.95-3.31 5.95h13.24l-3.31-5.95L196 65M202.88 65l3.31 5.95 3.31 5.95 3.31-5.95 3.31-5.95h-13.24M223 65l-3.31 5.95-3.31 5.95h13.24l-3.31-5.95L223 65M236.5 65h-6.62l3.31 5.95 3.31 5.95 3.31-5.95 3.31-5.95h-6.62M253.3 70.95L249.87 65l-3.43 5.95L243 76.9h13.74l-3.44-5.95M6.87 65l-3.43 5.95L0 76.9h13.74l-3.44-5.95L6.87 65"/>
</svg>
